<?xml version="1.0" encoding="UTF-8" standalone="no"?>
<svg
   xmlns:dc="http://purl.org/dc/elements/1.1/"
   xmlns:cc="http://creativecommons.org/ns#"
   xmlns:rdf="http://www.w3.org/1999/02/22-rdf-syntax-ns#"
   xmlns:svg="http://www.w3.org/2000/svg"
   xmlns="http://www.w3.org/2000/svg"
   version="1.1"
   id="Vrstva_1"
   x="0px"
   y="0px"
   width="105.49"
   height="106.35"
   viewBox="0 0 105.49 106.35"
   enable-background="new 0 0 350 107"
   xml:space="preserve"><metadata
   id="metadata49"><rdf:RDF><cc:Work
       rdf:about=""><dc:format>image/svg+xml</dc:format><dc:type
         rdf:resource="http://purl.org/dc/dcmitype/StillImage" /><dc:title></dc:title></cc:Work></rdf:RDF></metadata>
<g
   id="g953"
   transform="translate(-0.671,-0.376)"><polygon
     fill="#ffffff"
     points="34.287,23.745 17.212,53.562 34.287,83.356 51.36,53.562 "
     id="polygon28" /><polygon
     fill="#ffffff"
     points="36.782,84.808 71.679,84.808 88.771,55.008 53.862,55.008 "
     id="polygon30" /><polygon
     fill="#ffffff"
     points="36.782,22.304 53.862,52.11 88.771,52.11 71.679,22.304 "
     id="polygon32" /><path
     fill="#ffffff"
     d="m 53.411,0.376 c -29.15,0 -52.74,23.821 -52.74,53.186 0,29.354 23.59,53.164 52.74,53.164 29.128,0 52.75,-23.811 52.75,-53.164 0,-29.365 -23.622,-53.186 -52.75,-53.186 z m 20.341,86.621 c -0.253,0.431 -0.733,0.711 -1.229,0.711 H 34.287 c -0.521,0 -0.997,-0.27 -1.247,-0.711 L 14.311,54.273 c -0.265,-0.446 -0.265,-0.992 0,-1.44 L 33.04,20.12 c 0.25,-0.446 0.727,-0.716 1.247,-0.716 h 38.258 c 0.479,0 0.954,0.27 1.222,0.716 l 18.728,32.713 c 0.15,0.232 0.214,0.471 0.214,0.729 0,0.253 -0.063,0.496 -0.214,0.723 z"
     id="path34" /></g>
</svg>
