<?xml version="1.0" encoding="utf-8"?>
<!-- Generator: Adobe Illustrator 16.0.3, SVG Export Plug-In . SVG Version: 6.00 Build 0)  -->
<!DOCTYPE svg PUBLIC "-//W3C//DTD SVG 1.1//EN" "http://www.w3.org/Graphics/SVG/1.1/DTD/svg11.dtd">
<svg version="1.1" id="Vrstva_1" xmlns="http://www.w3.org/2000/svg" xmlns:xlink="http://www.w3.org/1999/xlink" x="0px" y="0px"
	 width="243px" height="40px" viewBox="0 0 243 40" enable-background="new 0 0 243 40" xml:space="preserve">
<g>
	<g>
		<polygon fill="#FFFFFF" points="3.983,13.207 3.983,9.675 3.983,6.142 0.45,6.142 0.45,9.675 0.45,13.207 0.45,16.741 
			3.983,16.741 		"/>
		<rect x="0.45" y="34.407" fill="#FFFFFF" width="3.533" height="3.532"/>
		<rect x="0.45" y="27.337" fill="#FFFFFF" width="3.533" height="3.537"/>
		<polygon fill="#FFFFFF" points="7.516,30.874 7.516,34.407 7.516,37.939 11.05,37.939 11.05,34.407 11.05,30.874 11.05,27.337 
			7.516,27.337 		"/>
		<rect x="7.516" y="13.207" fill="#FFFFFF" width="3.534" height="3.534"/>
		<polygon fill="#FFFFFF" points="18.116,16.741 18.116,13.207 14.583,13.207 14.583,16.741 14.583,20.274 18.116,20.274 		"/>
		<polygon fill="#FFFFFF" points="14.583,27.337 14.583,30.874 18.116,30.874 18.116,27.337 18.116,23.809 14.583,23.809 		"/>
		<polygon fill="#FFFFFF" points="18.116,9.675 18.116,6.142 14.583,6.142 11.05,6.142 7.516,6.142 7.516,9.675 11.05,9.675 
			14.583,9.675 		"/>
		<polygon fill="#FFFFFF" points="25.184,13.207 25.184,9.675 25.184,6.142 21.649,6.142 21.649,9.675 21.649,13.207 21.649,16.741 
			25.184,16.741 		"/>
		<rect x="21.649" y="20.274" fill="#FFFFFF" width="3.534" height="3.534"/>
		<rect x="21.649" y="27.337" fill="#FFFFFF" width="3.534" height="3.537"/>
		<rect x="28.716" y="6.142" fill="#FFFFFF" width="3.533" height="3.533"/>
		<polygon fill="#FFFFFF" points="28.716,16.741 28.716,20.274 32.249,20.274 32.249,16.741 32.249,13.207 28.716,13.207 		"/>
		<polygon fill="#FFFFFF" points="28.716,27.337 28.716,30.874 32.249,30.874 32.249,27.337 32.249,23.809 28.716,23.809 		"/>
		<polygon fill="#FFFFFF" points="25.184,34.407 25.184,37.939 28.716,37.939 32.249,37.939 32.249,34.407 28.716,34.407 		"/>
		<polygon fill="#FFFFFF" points="14.583,34.407 14.583,37.939 18.116,37.939 21.649,37.939 21.649,34.407 18.116,34.407 		"/>
		<polygon fill="#FFFFFF" points="3.983,20.274 0.45,20.274 0.45,23.809 3.983,23.809 7.516,23.809 11.05,23.809 11.05,20.274 
			7.516,20.274 		"/>
	</g>
	<g>
		<path fill="#FFFFFF" d="M56.647,6.034h2.75l-4.467,11.97h-1.97l-4.469-11.97h2.736l2.518,7.736l0.2,0.818l0.214-0.818
			L56.647,6.034z"/>
		<path fill="#FFFFFF" d="M72.121,6.053l-4.187,7.335v4.551h-2.551v-4.533l-4.167-7.353h2.933l2.3,4.551l0.201,0.669h0.035
			l0.165-0.635l2.318-4.585H72.121z M69.685,2.434l-2.601,2.834l-1.383-0.917l1.817-2.502L69.685,2.434z"/>
		<path fill="#FFFFFF" d="M83.209,17.188c-0.917,0.651-2.168,1.019-3.353,1.019c-1.783,0-3.383-0.666-4.569-1.818
			c-1.198-1.15-1.898-2.734-1.898-4.419c0-1.683,0.7-3.231,1.885-4.384c1.183-1.133,2.768-1.799,4.501-1.799
			c1.282,0,2.532,0.352,3.449,1.016l-1.1,1.783c-0.682-0.415-1.448-0.614-2.268-0.614c-1.066,0-2.032,0.415-2.769,1.149
			c-0.73,0.732-1.149,1.733-1.149,2.867c0,1.117,0.419,2.135,1.149,2.869c0.736,0.73,1.702,1.164,2.769,1.164
			c0.684,0,1.568-0.216,2.234-0.634L83.209,17.188z"/>
		<path fill="#FFFFFF" d="M86.195,6.053h2.565v5.118h4.587V6.053h2.549v11.886h-2.549v-4.582h-4.587v4.582h-2.565V6.053z"/>
		<path fill="#FFFFFF" d="M100.8,7.585c1.202-1.133,2.785-1.799,4.535-1.799c1.752,0,3.368,0.666,4.553,1.799
			c1.183,1.152,1.869,2.701,1.869,4.384c0,1.685-0.687,3.252-1.869,4.402c-1.185,1.151-2.801,1.835-4.553,1.835
			c-1.75,0-3.333-0.684-4.535-1.835c-1.199-1.15-1.898-2.718-1.898-4.402C98.901,10.286,99.601,8.737,100.8,7.585z M102.604,14.856
			c0.714,0.73,1.682,1.164,2.731,1.164c1.067,0,2.054-0.434,2.734-1.164c0.717-0.752,1.116-1.752,1.116-2.869
			c0-1.119-0.414-2.135-1.099-2.867c-0.684-0.734-1.685-1.149-2.752-1.149c-1.05,0-2.018,0.415-2.731,1.149
			c-0.72,0.732-1.153,1.748-1.153,2.867C101.45,13.104,101.884,14.104,102.604,14.856z"/>
		<path fill="#FFFFFF" d="M114.723,6.053h3.551c1.85,0,3.385,0.632,4.455,1.718c1.048,1.066,1.616,2.549,1.616,4.217
			c0,1.518-0.518,3.001-1.499,4.085c-1.051,1.183-2.586,1.866-4.538,1.866h-3.585V6.053z M118.592,15.756
			c1.016,0,1.85-0.45,2.401-1.235c0.519-0.715,0.802-1.617,0.802-2.501c0-0.916-0.253-1.817-0.736-2.532
			c-0.617-0.834-1.432-1.254-2.467-1.254h-1.299v7.522H118.592z"/>
		<path fill="#FFFFFF" d="M128.665,7.585c1.2-1.133,2.785-1.799,4.534-1.799c1.748,0,3.366,0.666,4.554,1.799
			c1.184,1.152,1.866,2.701,1.866,4.384c0,1.685-0.683,3.252-1.866,4.402c-1.188,1.151-2.806,1.835-4.554,1.835
			c-1.749,0-3.334-0.684-4.534-1.835c-1.199-1.15-1.899-2.718-1.899-4.402C126.766,10.286,127.466,8.737,128.665,7.585z
			 M130.465,14.856c0.717,0.73,1.683,1.164,2.734,1.164c1.067,0,2.053-0.434,2.735-1.164c0.715-0.752,1.116-1.752,1.116-2.869
			c0-1.119-0.416-2.135-1.102-2.867c-0.686-0.734-1.683-1.149-2.75-1.149c-1.052,0-2.018,0.415-2.734,1.149
			c-0.717,0.732-1.149,1.748-1.149,2.867C129.315,13.104,129.748,14.104,130.465,14.856z"/>
		<path fill="#FFFFFF" d="M142.521,15.372l0.197,0.116c0.67,0.351,1.2,0.532,2.068,0.532c1.118,0,1.784-0.516,1.784-1.399
			c0-0.802-0.433-1.317-1.748-1.899c-2.119-0.869-3.136-1.984-3.136-3.602c0-0.95,0.365-1.784,1.051-2.387
			c0.666-0.596,1.684-0.947,2.883-0.947s2.466,0.352,3.151,0.768l-1.118,1.85c-0.215-0.117-0.483-0.219-0.782-0.302
			c-0.401-0.099-0.733-0.15-0.985-0.15c-1.049,0-1.734,0.399-1.734,1.152c0,0.384,0.202,0.698,0.584,0.979
			c0.203,0.17,0.417,0.304,0.636,0.404l0.382,0.198c0.803,0.418,1.386,0.766,1.753,1.036c0.753,0.547,1.251,1.148,1.465,1.799
			c0.12,0.332,0.166,0.702,0.166,1.117c0,1.118-0.416,2.018-1.147,2.633c-0.717,0.619-1.668,0.936-2.837,0.936
			c-1.479,0-2.715-0.351-3.567-0.801L142.521,15.372z"/>
		<path fill="#FFFFFF" d="M151.959,6.053h2.566v9.703h3.954v2.183h-6.521V6.053z"/>
		<path fill="#FFFFFF" d="M162.063,7.585c1.199-1.133,2.784-1.799,4.533-1.799c1.75,0,3.369,0.666,4.554,1.799
			c1.184,1.152,1.866,2.701,1.866,4.384c0,1.685-0.683,3.252-1.866,4.402c-1.185,1.151-2.804,1.835-4.554,1.835
			c-1.749,0-3.334-0.684-4.533-1.835c-1.2-1.15-1.902-2.718-1.902-4.402C160.161,10.286,160.863,8.737,162.063,7.585z
			 M163.862,14.856c0.722,0.73,1.683,1.164,2.734,1.164c1.067,0,2.049-0.434,2.734-1.164c0.717-0.752,1.118-1.752,1.118-2.869
			c0-1.119-0.416-2.135-1.102-2.867c-0.683-0.734-1.684-1.149-2.751-1.149c-1.052,0-2.013,0.415-2.734,1.149
			c-0.717,0.732-1.149,1.748-1.149,2.867C162.713,13.104,163.146,14.104,163.862,14.856z"/>
		<path fill="#FFFFFF" d="M182.439,6.034h2.749l-4.467,11.97h-1.967l-4.468-11.97h2.734l2.516,7.736l0.203,0.818l0.213-0.818
			L182.439,6.034z"/>
		<path fill="#FFFFFF" d="M187.826,6.053h6.572v2.165h-4.002v2.619h3.479v2.085h-3.479v2.815h4.033v2.201h-6.604V6.053z"/>
		<path fill="#FFFFFF" d="M207.216,18.004h-1.62l-5.166-6.716l-0.314-0.502v7.152h-2.571V5.968h1.652l5.103,6.754l0.363,0.582V6.053
			h2.554V18.004z"/>
		<path fill="#FFFFFF" d="M210.82,15.372l0.197,0.116c0.666,0.351,1.205,0.532,2.068,0.532c1.115,0,1.784-0.516,1.784-1.399
			c0-0.802-0.436-1.317-1.748-1.899c-2.119-0.869-3.136-1.984-3.136-3.602c0-0.95,0.365-1.784,1.048-2.387
			c0.669-0.596,1.687-0.947,2.886-0.947c1.2,0,2.47,0.352,3.151,0.768l-1.118,1.85c-0.213-0.117-0.482-0.219-0.779-0.302
			c-0.4-0.099-0.739-0.15-0.984-0.15c-1.051,0-1.733,0.399-1.733,1.152c0,0.384,0.194,0.698,0.584,0.979
			c0.194,0.17,0.413,0.304,0.631,0.404l0.382,0.198c0.799,0.418,1.383,0.766,1.753,1.036c0.753,0.547,1.251,1.148,1.465,1.799
			c0.117,0.332,0.166,0.702,0.166,1.117c0,1.118-0.416,2.018-1.152,2.633c-0.712,0.619-1.667,0.936-2.831,0.936
			c-1.485,0-2.719-0.351-3.568-0.801L210.82,15.372z"/>
		<path fill="#FFFFFF" d="M222.825,17.938h-2.567V6.053h2.567v5.001h0.034l0.185-0.283l3.313-4.718h2.953l-3.868,5.481l4.352,6.404
			h-2.868l-4.101-6.254V17.938z"/>
		<path fill="#FFFFFF" d="M239.044,15.671h-4.199l-0.748,2.268h-2.737l4.721-11.971h1.749l4.721,11.971h-2.754L239.044,15.671z
			 M235.562,13.537h2.771l-1.22-3.685l-0.151-0.667l-0.184,0.667L235.562,13.537z M240.097,2.366l-2.598,2.833l-1.388-0.913
			l1.818-2.502L240.097,2.366z"/>
		<path fill="#FFFFFF" d="M57.747,35.198v-1.699h-2.286v-2.002h4.569l0.033,4.635c-0.634,0.632-1.268,1.099-1.884,1.418
			c-0.85,0.447-1.817,0.666-2.867,0.666c-1.784,0-3.385-0.666-4.568-1.818c-1.2-1.148-1.9-2.734-1.9-4.417
			c0-1.687,0.7-3.233,1.9-4.386c1.201-1.134,2.784-1.8,4.568-1.8c1.584,0,2.951,0.503,3.833,1.366l-1.583,1.484
			c-0.634-0.447-1.383-0.666-2.25-0.666c-1.068,0-2.035,0.418-2.77,1.148c-0.731,0.734-1.148,1.734-1.148,2.869
			c0,1.116,0.417,2.133,1.148,2.865c0.734,0.732,1.701,1.153,2.77,1.153C56.313,36.016,57.062,35.731,57.747,35.198z"/>
		<path fill="#FFFFFF" d="M69.986,35.68h-4.201l-0.75,2.268H62.3l4.718-11.97h1.751l4.72,11.97h-2.752L69.986,35.68z M66.502,33.546
			h2.768l-1.219-3.684l-0.148-0.667l-0.184,0.667L66.502,33.546z"/>
		<path fill="#FFFFFF" d="M76.021,26.063h2.568v9.702h3.953v2.182h-6.521V26.063z"/>
		<path fill="#FFFFFF" d="M85.508,26.063h6.57v2.166h-4.001v2.616h3.485v2.085h-3.485v2.816h4.034v2.2h-6.604V26.063z
			 M92.312,22.326l-2.601,2.834l-1.384-0.916l1.816-2.499L92.312,22.326z"/>
		<path fill="#FFFFFF" d="M98.131,33.647v4.3h-2.564V26.063h3.451c1.115,0,2.114,0.397,2.85,1.066
			c0.733,0.683,1.151,1.648,1.151,2.715c0,1.602-0.921,2.918-2.387,3.504l3.069,4.599h-2.852L98.131,33.647z M98.916,31.446
			c0.983,0,1.638-0.686,1.638-1.616c0-0.92-0.605-1.586-1.618-1.586h-0.805v3.202H98.916z"/>
		<path fill="#FFFFFF" d="M106.42,26.063h2.566v11.884h-2.566V26.063z"/>
		<path fill="#FFFFFF" d="M119.041,35.68h-4.2l-0.748,2.268h-2.737l4.718-11.97h1.75l4.72,11.97h-2.75L119.041,35.68z
			 M115.558,33.546h2.769l-1.22-3.684l-0.15-0.667l-0.183,0.667L115.558,33.546z"/>
	</g>
</g>
</svg>
