<svg width="230" height="50" viewBox="0 0 172.5 37.5" xmlns:xlink="http://www.w3.org/1999/xlink" xmlns="http://www.w3.org/2000/svg"><symbol id="a"><path d="M.134.67c.038.035.08.052.127.052a.15.15 0 0 0 .12-.053C.415.626.433.559.433.466.434.285.373.194.251.194A.211.211 0 0 0 .149.22V.04c0-.007 0-.011-.003-.014C.145.024.14.022.134.021L.04.001A.047.047 0 0 0 .031 0C.025 0 .022.006.022.017v.55a.25.25 0 0 1-.02.098A.02.02 0 0 0 0 .673c0 .003.003.007.01.01L.097.72a.03.03 0 0 0 .009.002C.116.722.125.705.134.67M.149.585V.31a.144.144 0 0 1 .07-.02C.249.29.27.3.282.319.3.344.307.393.307.463.307.524.3.568.282.593.27.613.252.622.227.622S.176.61.15.585Z"/></symbol><symbol id="b"><path d="M.14.433a.938.938 0 0 0 .035.039c.026.026.056.04.09.04A.1.1 0 0 0 .316.5.014.014 0 0 0 .322.489.03.03 0 0 0 .32.479L.29.396C.288.39.285.387.282.387L.275.39a.102.102 0 0 1-.04.01C.214.399.188.382.158.349V.018C.159.006.153 0 .142 0H.049C.042 0 .037.001.035.004.033.006.032.01.032.017v.304A.331.331 0 0 1 0 .47c0 .004.003.008.01.01l.08.03a.036.036 0 0 0 .014 0C.116.51.129.485.14.433z"/></symbol><symbol id="c"><path d="M.222.528a.19.19 0 0 0 .145-.06.287.287 0 0 0 .068-.203.317.317 0 0 0-.04-.166A.194.194 0 0 0 .218 0 .194.194 0 0 0 .06.067.301.301 0 0 0 0 .264c0 .08.02.144.058.19a.196.196 0 0 0 .164.074M.216.427C.185.427.163.412.15.382A.331.331 0 0 1 .135.264C.135.21.14.17.15.145A.067.067 0 0 1 .217.101C.25.1.271.115.283.145A.322.322 0 0 1 .3.262a.325.325 0 0 1-.017.12.067.067 0 0 1-.067.045Z"/></symbol><symbol id="d"><path d="M.093.494v.042c0 .06.01.103.03.13.03.039.073.058.13.058A.26.26 0 0 0 .357.705C.37.701.375.695.375.688L.373.68.354.61C.353.602.35.6.346.6a.024.024 0 0 0-.01.003.141.141 0 0 1-.06.015C.253.618.238.611.229.598a.133.133 0 0 1-.01-.062V.494h.115c.011 0 .017-.003.017-.01L.35.474.334.416C.332.406.326.402.316.4H.22V.017C.22.006.214 0 .203 0H.11C.103 0 .098.001.096.004.094.006.093.01.093.017v.384H.017C.01.401.004.402.003.404A.043.043 0 0 0 0 .424V.48c0 .01.006.014.017.014z"/></symbol><symbol id="e"><path d="M.155.722A.076.076 0 0 0 .213.695.078.078 0 0 0 .234.641.078.078 0 0 0 .207.58.079.079 0 0 0 .153.56a.077.077 0 0 0-.06.026.078.078 0 0 0-.02.055c0 .023.009.043.026.059a.079.079 0 0 0 .056.02M.093.402H.017C.006.402 0 .408 0 .42v.058C0 .49.006.495.017.494h.186c.007 0 .011 0 .014-.003C.219.489.22.484.22.477v-.46C.22.007.215 0 .203.002H.11C.098 0 .093.006.093.018Z"/></symbol><symbol id="f"><path d="m.015.72.09.02a.122.122 0 0 0 .011 0c.007 0 .01-.005.01-.017v-.52c0-.038 0-.06.002-.066C.132.124.14.117.154.117c.01 0 .02.002.034.006a.02.02 0 0 0 .006.002C.198.125.201.122.202.118l.02-.081a.08.08 0 0 0 .002-.01C.224.025.22.022.214.018A.223.223 0 0 0 .123 0C.065 0 .028.023.01.068A.485.485 0 0 0 0 .194v.509c0 .01.005.016.015.018z"/></symbol><symbol id="g"><path d="M.001.052.02.095C.02.098.023.1.026.1.028.1.031.1.034.098A.282.282 0 0 1 .156.064a.08.08 0 0 1 .056.019.067.067 0 0 1 .023.054A.064.064 0 0 1 .22.18a.15.15 0 0 1-.048.031.634.634 0 0 0-.112.063.117.117 0 0 0-.046.094c0 .038.013.07.04.096a.15.15 0 0 0 .112.043C.2.507.236.5.27.484.287.477.294.47.294.466c0-.002 0-.004-.002-.007L.275.422C.273.418.27.416.266.416L.258.418a.237.237 0 0 1-.093.025A.085.085 0 0 1 .11.427a.061.061 0 0 1-.022-.05c0-.02.007-.037.02-.05A.136.136 0 0 1 .144.305L.213.27A.223.223 0 0 0 .287.22.115.115 0 0 0 .313.141.133.133 0 0 0 .264.035.169.169 0 0 0 .154 0a.288.288 0 0 0-.148.039C.002.04 0 .044 0 .048Z"/></symbol><symbol id="h"><path d="M.273.12v.359c0 .007.003.01.01.013l.052.013.007.001c.004 0 .007-.003.007-.01v-.35C.349.12.35.1.355.083a.132.132 0 0 1 .02-.04.013.013 0 0 0 .003-.006C.378.035.377.033.374.032L.329.002A.013.013 0 0 0 .322 0C.318 0 .312.006.305.019A.183.183 0 0 0 .287.06.338.338 0 0 0 .224.02.194.194 0 0 0 .138 0C.046 0 0 .044 0 .133V.48c0 .007.003.01.01.013l.053.013.006.001c.004 0 .007-.003.007-.01V.183a.22.22 0 0 1 .01-.08C.095.08.115.068.146.068a.216.216 0 0 1 .125.051M.14.604l.146.11C.289.719.292.72.295.72.296.72.3.717.303.712l.03-.043C.336.665.337.662.337.66.337.657.334.654.328.65L.164.565a.023.023 0 0 0-.01-.003C.152.562.15.565.146.57l-.01.015C.133.589.13.592.13.595a.03.03 0 0 0 .01.009Z"/></symbol><symbol id="i"><path d="M.346.438.324.398C.32.395.319.393.316.393.314.392.31.393.308.396a.333.333 0 0 1-.046.03.125.125 0 0 1-.057.015.1.1 0 0 1-.09-.047.26.26 0 0 1-.03-.14C.084.13.12.068.194.068.22.068.247.075.273.09A.583.583 0 0 1 .32.12C.323.12.325.118.327.113L.342.076a.03.03 0 0 0 .003-.01C.345.06.34.054.33.046A.228.228 0 0 0 .189 0c-.056 0-.1.02-.134.059A.276.276 0 0 0 0 .243C0 .331.021.4.064.448c.036.04.082.06.14.06A.21.21 0 0 0 .323.47C.339.46.348.45.348.444A.01.01 0 0 0 .346.438M.2.648l.091.059a.021.021 0 0 0 .01.004C.305.71.308.708.312.703L.323.688C.326.683.328.68.328.677.328.674.325.672.32.668L.21.581C.206.577.203.576.201.576a.027.027 0 0 0-.01.004l-.11.087C.076.672.074.675.074.678c0 .002.001.005.005.01l.013.018A.01.01 0 0 0 .1.71.018.018 0 0 0 .109.707Z"/></symbol><symbol id="j"><path d="M.264.311v.033c0 .032-.006.054-.019.067C.23.426.205.434.172.434a.295.295 0 0 1-.119-.03.019.019 0 0 0-.007-.002.008.008 0 0 0-.007.005l-.015.04a.024.024 0 0 0-.001.008c0 .005.008.011.025.02A.36.36 0 0 0 .183.5C.287.501.34.455.34.361V.172C.34.135.342.106.347.088A.18.18 0 0 1 .367.04.012.012 0 0 0 .37.036C.37.033.368.03.365.03L.321.003A.017.017 0 0 0 .313 0C.31 0 .303.006.295.019a.182.182 0 0 0-.02.044A.204.204 0 0 0 .133 0a.128.128 0 0 0-.096.036A.14.14 0 0 0 0 .137C0 .25.088.308.264.311m0-.061C.14.249.077.213.077.143c0-.023.006-.041.02-.057A.065.065 0 0 1 .15.063c.033 0 .072.019.114.057z"/></symbol><symbol id="k"><path d="M.089.427a.41.41 0 0 0 .07.046.219.219 0 0 0 .091.021C.299.494.333.478.352.446A.129.129 0 0 0 .368.388L.37.345V.012C.37.004.366 0 .357 0H.305C.297 0 .293.004.293.012v.335C.293.375.29.396.28.407.268.423.251.43.228.43A.154.154 0 0 1 .146.406a.37.37 0 0 1-.05-.04V.012C.096.004.092 0 .084 0H.032C.024 0 .02.004.02.012v.344a.262.262 0 0 1-.006.06A.246.246 0 0 1 0 .458C0 .46.001.462.004.464L.05.49a.017.017 0 0 0 .008.003c.005 0 .01-.007.017-.02A.179.179 0 0 0 .089.427Z"/></symbol><symbol id="l"><path d="M.083.237A.228.228 0 0 1 .11.127a.117.117 0 0 1 .105-.06.243.243 0 0 1 .115.038.02.02 0 0 0 .01.003.017.017 0 0 0 .006-.006L.365.063A.023.023 0 0 0 .367.055C.367.05.355.041.333.03A.278.278 0 0 0 .208 0C.148 0 .101.02.064.06A.278.278 0 0 0 0 .253c0 .08.019.143.057.19a.17.17 0 0 0 .14.064.17.17 0 0 0 .118-.043A.202.202 0 0 0 .376.33.656.656 0 0 0 .38.255C.38.243.376.237.369.237H.083m0 .062h.216a.205.205 0 0 1-.023.1.091.091 0 0 1-.084.048.096.096 0 0 1-.09-.058.235.235 0 0 1-.02-.09M.17.604l.146.11C.32.719.323.72.326.72.328.72.33.717.335.712l.03-.043L.368.66C.369.657.366.654.359.65L.195.565a.023.023 0 0 0-.01-.003C.184.562.18.565.178.57l-.01.015C.164.589.163.592.163.595.163.597.165.6.17.604Z"/></symbol><symbol id="m"><path d="M.076.428a.295.295 0 0 0 .063.045c.027.014.058.02.09.02.045 0 .078-.012.098-.038A.105.105 0 0 0 .349.4.558.558 0 0 0 .352.343V.012C.352.004.348 0 .34 0H.287C.28 0 .276.004.277.012v.333a.122.122 0 0 1-.011.06C.256.42.236.428.208.428.17.429.128.408.076.366V.012C.076.004.072 0 .065 0H.012C.004 0 0 .004 0 .012v.686c0 .006.003.01.01.013l.053.012.007.001C.074.724.076.72.076.713z"/></symbol><symbol id="n"><path d="M.206.507a.17.17 0 0 0 .14-.063.234.234 0 0 0 .04-.087.396.396 0 0 0-.01-.23C.346.041.284 0 .193 0a.168.168 0 0 0-.14.063A.299.299 0 0 0 0 .252c0 .047.007.09.021.129.032.084.093.126.185.126M.199.444C.159.444.13.43.112.4a.26.26 0 0 1-.03-.138c0-.068.01-.12.03-.154A.09.09 0 0 1 .162.07a.113.113 0 0 1 .09.004.086.086 0 0 1 .034.032.289.289 0 0 1 .032.152c0 .06-.01.107-.031.14a.095.095 0 0 1-.088.047Z"/></symbol><symbol id="o"><path d="M.206.098a.783.783 0 0 0 .02.062l.118.33c.002.005.004.008.008.008L.358.497.41.483C.416.48.419.478.419.474L.417.468.235.01C.233.003.229 0 .222 0H.184C.178 0 .174.003.171.01L.002.47A.02.02 0 0 0 0 .476C0 .48.003.483.01.484l.056.012h.006C.075.497.078.495.08.489L.187.161Z"/></symbol><symbol id="p"><path d="m.237.24.016.071.1.38c0 .006.004.01.009.01A.02.02 0 0 0 .367.698L.419.681C.425.678.429.676.429.672L.426.667.313.274A1.38 1.38 0 0 0 .247.082C.22.027.18 0 .127 0A.206.206 0 0 0 .02.03C.007.038 0 .045 0 .05l.001.007.021.04C.024.1.026.102.029.102L.036.099A.163.163 0 0 1 .125.063C.157.063.183.091.2.148l.02.063H.183c-.006 0-.01.003-.012.01L.013.664A.018.018 0 0 0 .011.67c0 .003.003.006.009.008L.074.7a.034.034 0 0 0 .008 0C.084.7.087.698.089.692L.217.313C.223.293.23.27.237.24M.201.802l.146.11c.004.004.007.005.01.005C.358.917.361.915.365.91l.03-.043C.398.863.399.86.399.857S.396.85.39.848L.226.763A.023.023 0 0 0 .216.76C.214.76.211.762.208.768l-.01.015C.195.787.193.79.193.793c0 .002.003.005.008.009z"/></symbol><symbol id="q"><path d="M.083.49v.137c0 .007.003.011.01.013l.052.014a.023.023 0 0 0 .007.002C.156.656.159.652.159.645V.49h.15C.314.49.317.488.317.484c0-.001 0-.004-.002-.007L.306.438C.304.431.3.428.292.428H.159V.147c0-.03.003-.05.01-.06.01-.014.026-.021.05-.021.022 0 .052.009.09.026a.016.016 0 0 0 .006.002C.32.093.321.09.322.086l.012-.04A.019.019 0 0 0 .335.04C.335.036.328.03.313.023A.258.258 0 0 0 .205 0C.153 0 .117.018.097.054a.208.208 0 0 0-.014.092v.283H.012C.004.429 0 .432 0 .439v.04C0 .487.004.491.012.49Z"/></symbol><symbol id="r"><path d="m.094.411.04.044a.127.127 0 0 0 .084.039.09.09 0 0 0 .043-.01C.266.484.268.48.268.479S.268.474.266.47L.242.415C.24.413.239.412.237.412H.233a.108.108 0 0 1-.03.007C.187.42.168.41.146.39A.599.599 0 0 1 .104.343V.012C.104.004.1 0 .092 0H.04C.032 0 .028.004.028.012v.3a.522.522 0 0 1-.004.082.167.167 0 0 1-.02.053.024.024 0 0 0-.004.01C0 .46.002.463.006.466l.042.026a.013.013 0 0 0 .008.002C.06.494.067.485.076.468A.218.218 0 0 0 .094.411Z"/></symbol><symbol id="s"><path d="M.273.12v.359c0 .007.003.01.01.013l.052.013.007.001c.004 0 .007-.003.007-.01v-.35C.349.12.35.1.355.083a.132.132 0 0 1 .02-.04.013.013 0 0 0 .003-.006C.378.035.377.033.374.032L.329.002A.013.013 0 0 0 .322 0C.318 0 .312.006.305.019A.183.183 0 0 0 .287.06.338.338 0 0 0 .224.02.194.194 0 0 0 .138 0C.046 0 0 .044 0 .133V.48c0 .007.003.01.01.013l.053.013.006.001c.004 0 .007-.003.007-.01V.183a.22.22 0 0 1 .01-.08C.095.08.115.068.146.068a.216.216 0 0 1 .125.051z"/></symbol><symbol id="t"><path d="M.083.435a.349.349 0 0 0 .062.04c.025.013.05.019.077.019.048 0 .08-.02.097-.059.055.04.103.059.145.059C.508.494.538.479.555.45A.204.204 0 0 0 .573.353V.012C.573.004.569 0 .56 0H.51C.502 0 .498.004.498.012v.344c0 .048-.021.073-.064.073a.193.193 0 0 1-.101-.04V.012C.333.004.329 0 .32 0H.27C.26 0 .257.004.258.012v.343c0 .05-.022.074-.065.074-.03 0-.063-.014-.1-.043V.012C.093.004.09 0 .082 0H.03C.022 0 .018.004.02.012v.36c0 .03-.006.057-.018.083A.016.016 0 0 0 0 .459c0 .003.001.006.004.007l.04.023a.015.015 0 0 0 .009.003c.004 0 .01-.006.016-.019A.169.169 0 0 0 .083.435Z"/></symbol><symbol id="u"><path d="M.083.237A.228.228 0 0 1 .11.127a.117.117 0 0 1 .105-.06.243.243 0 0 1 .115.038.02.02 0 0 0 .01.003.017.017 0 0 0 .006-.006L.365.063A.023.023 0 0 0 .367.055C.367.05.355.041.333.03A.278.278 0 0 0 .208 0C.148 0 .101.02.064.06A.278.278 0 0 0 0 .253c0 .08.019.143.057.19a.17.17 0 0 0 .14.064.17.17 0 0 0 .118-.043A.202.202 0 0 0 .376.33.656.656 0 0 0 .38.255C.38.243.376.237.369.237H.083m0 .062h.216a.205.205 0 0 1-.023.1.091.091 0 0 1-.084.048.096.096 0 0 1-.09-.058.235.235 0 0 1-.02-.09Z"/></symbol><symbol id="v"><path d="M.123.718a.057.057 0 0 0 .044-.02.06.06 0 0 0 .015-.04.058.058 0 0 0-.02-.046.058.058 0 0 0-.04-.015.058.058 0 0 0-.045.02.06.06 0 0 0-.016.04.06.06 0 0 0 .02.045.06.06 0 0 0 .042.016M.09.418H.01C.004.418 0 .422 0 .43v.039C0 .477.004.48.011.48h.144C.163.48.167.477.167.469V.012C.167.004.163 0 .155 0H.102C.094 0 .09.004.091.012Z"/></symbol><symbol id="w"><path d="M.346.438.324.398C.32.395.319.393.316.393.314.392.31.393.308.396a.333.333 0 0 1-.046.03.125.125 0 0 1-.057.015.1.1 0 0 1-.09-.047.26.26 0 0 1-.03-.14C.084.13.12.068.194.068.22.068.247.075.273.09A.583.583 0 0 1 .32.12C.323.12.325.118.327.113L.342.076a.03.03 0 0 0 .003-.01C.345.06.34.054.33.046A.228.228 0 0 0 .189 0c-.056 0-.1.02-.134.059A.276.276 0 0 0 0 .243C0 .331.021.4.064.448c.036.04.082.06.14.06A.21.21 0 0 0 .323.47C.339.46.348.45.348.444A.01.01 0 0 0 .346.438Z"/></symbol><symbol id="x"><path d="M.092.647a.37.37 0 0 0 .054.037.193.193 0 0 0 .09.022c.057 0 .097-.024.12-.07A.392.392 0 0 0 .39.462.38.38 0 0 0 .346.27.134.134 0 0 0 .223.198a.206.206 0 0 0-.118.044V.028C.105.022.102.018.096.016L.043 0a.027.027 0 0 0-.006 0C.033 0 .03.004.03.011v.543A.282.282 0 0 1 .026.61.14.14 0 0 1 .01.65.068.068 0 0 0 0 .67c0 .002.001.004.003.005l.044.03C.05.709.052.709.054.709.058.708.064.702.072.69a.182.182 0 0 0 .02-.042m.013-.34a.207.207 0 0 1 .11-.04c.039 0 .064.018.077.055A.444.444 0 0 1 .309.46c0 .057-.005.1-.016.127a.08.08 0 0 1-.028.038.072.072 0 0 1-.043.014.16.16 0 0 1-.078-.024A.524.524 0 0 1 .105.59Z"/></symbol><symbol id="y"><path d="m.237.24.016.071.1.38c0 .006.004.01.009.01A.02.02 0 0 0 .367.698L.419.681C.425.678.429.676.429.672L.426.667.313.274A1.38 1.38 0 0 0 .247.082C.22.027.18 0 .127 0A.206.206 0 0 0 .02.03C.007.038 0 .045 0 .05l.001.007.021.04C.024.1.026.102.029.102L.036.099A.163.163 0 0 1 .125.063C.157.063.183.091.2.148l.02.063H.183c-.006 0-.01.003-.012.01L.013.664A.018.018 0 0 0 .011.67c0 .003.003.006.009.008L.074.7a.034.034 0 0 0 .008 0C.084.7.087.698.089.692L.217.313C.223.293.23.27.237.24Z"/></symbol><symbol id="z"><path d="M.294.278a.22.22 0 0 0-.14-.054.13.13 0 0 0-.1.045.19.19 0 0 0-.04.073A.36.36 0 0 0 0 .446c0 .085.017.15.052.195a.163.163 0 0 0 .137.064.222.222 0 0 0 .122-.042.177.177 0 0 0 .017.035C.333.706.337.71.338.71a.015.015 0 0 0 .01-.003L.392.679C.395.678.396.676.396.673A.035.035 0 0 0 .39.66a.193.193 0 0 1-.025-.1V.404A3.404 3.404 0 0 1 .372.177a.191.191 0 0 0-.03-.114C.31.021.261 0 .193 0a.318.318 0 0 0-.149.036C.032.043.025.05.025.054L.027.06.045.1c.002.004.004.005.007.005A.02.02 0 0 0 .06.104.284.284 0 0 1 .19.067c.02 0 .038.003.055.01A.078.078 0 0 1 .28.103c.01.014.015.039.015.073a1.296 1.296 0 0 1-.002.102M.29.611a.213.213 0 0 1-.095.028.094.094 0 0 1-.077-.035C.093.574.08.528.08.464c0-.063.008-.11.025-.138C.119.303.14.292.17.292c.034 0 .074.016.12.049z"/></symbol><symbol id="A"><path d="m0 .052.252.365h-.22C.024.417.02.42.02.428v.04c0 .01.004.012.01.012h.304C.343.48.347.477.347.469V.427L.097.065h.25c.007 0 .01-.002.01-.006L.355.05.337.01C.334.003.33 0 .324 0H.011C.006 0 .003 0 .002.002.001.003 0 .006 0 .012Z"/></symbol><g transform="matrix(.3819 0 0 .3819 -37.964 -4.249)" style="fill:#fff" fill="#231f20"><use xlink:href="#a" transform="matrix(100 0 0 -100 320.142 105.441)" width="100%" height="100%" style="fill:#fff"/><use xlink:href="#b" transform="matrix(100 0 0 -100 371.065 84.331)" width="100%" height="100%" style="fill:#fff"/><use xlink:href="#c" transform="matrix(100 0 0 -100 404.537 86.008)" width="100%" height="100%" style="fill:#fff"/><use xlink:href="#d" transform="matrix(100 0 0 -100 451.803 84.331)" width="100%" height="100%" style="fill:#fff"/><use xlink:href="#e" transform="matrix(100 0 0 -100 489.88 84.364)" width="100%" height="100%" style="fill:#fff"/><use xlink:href="#f" transform="matrix(100 0 0 -100 525.86 86.008)" width="100%" height="100%" style="fill:#fff"/><use xlink:href="#g" transform="matrix(18 0 0 -18 100.748 105.49)" width="100%" height="100%" style="fill:#fff"/><use xlink:href="#h" transform="matrix(18 0 0 -18 108.444 105.49)" width="100%" height="100%" style="fill:#fff"/><use xlink:href="#i" transform="matrix(18 0 0 -18 117.04 105.49)" width="100%" height="100%" style="fill:#fff"/><use xlink:href="#j" transform="matrix(18 0 0 -18 124.13 105.428)" width="100%" height="100%" style="fill:#fff"/><use xlink:href="#g" transform="matrix(18 0 0 -18 132.428 105.49)" width="100%" height="100%" style="fill:#fff"/><use xlink:href="#k" transform="matrix(18 0 0 -18 140.019 105.249)" width="100%" height="100%" style="fill:#fff"/><use xlink:href="#l" transform="matrix(18 0 0 -18 149.062 105.49)" width="100%" height="100%" style="fill:#fff"/><use xlink:href="#m" transform="matrix(18 0 0 -18 158.014 105.243)" width="100%" height="100%" style="fill:#fff"/><use xlink:href="#n" transform="matrix(18 0 0 -18 166.738 105.49)" width="100%" height="100%" style="fill:#fff"/><use xlink:href="#o" transform="matrix(18 0 0 -18 178.594 105.372)" width="100%" height="100%" style="fill:#fff"/><use xlink:href="#p" transform="matrix(18 0 0 -18 186.077 109.049)" width="100%" height="100%" style="fill:#fff"/><use xlink:href="#q" transform="matrix(18 0 0 -18 194.003 105.428)" width="100%" height="100%" style="fill:#fff"/><use xlink:href="#o" transform="matrix(18 0 0 -18 199.924 105.372)" width="100%" height="100%" style="fill:#fff"/><use xlink:href="#j" transform="matrix(18 0 0 -18 208.441 105.428)" width="100%" height="100%" style="fill:#fff"/><use xlink:href="#r" transform="matrix(18 0 0 -18 217.303 105.249)" width="100%" height="100%" style="fill:#fff"/><use xlink:href="#k" transform="matrix(18 0 0 -18 223.575 105.249)" width="100%" height="100%" style="fill:#fff"/><use xlink:href="#l" transform="matrix(18 0 0 -18 232.618 105.49)" width="100%" height="100%" style="fill:#fff"/><use xlink:href="#m" transform="matrix(18 0 0 -18 241.57 105.243)" width="100%" height="100%" style="fill:#fff"/><use xlink:href="#n" transform="matrix(18 0 0 -18 250.294 105.49)" width="100%" height="100%" style="fill:#fff"/><use xlink:href="#s" transform="matrix(18 0 0 -18 263.406 105.49)" width="100%" height="100%" style="fill:#fff"/><use xlink:href="#t" transform="matrix(18 0 0 -18 272.3 105.243)" width="100%" height="100%" style="fill:#fff"/><use xlink:href="#u" transform="matrix(18 0 0 -18 284.998 105.49)" width="100%" height="100%" style="fill:#fff"/><use xlink:href="#k" transform="matrix(18 0 0 -18 293.63 105.249)" width="100%" height="100%" style="fill:#fff"/><use xlink:href="#v" transform="matrix(18 0 0 -18 301.9 105.243)" width="100%" height="100%" style="fill:#fff"/><use xlink:href="#j" transform="matrix(18 0 0 -18 307.081 105.428)" width="100%" height="100%" style="fill:#fff"/><use xlink:href="#w" transform="matrix(18 0 0 -18 345.334 105.49)" width="100%" height="100%" style="fill:#fff"/><use xlink:href="#n" transform="matrix(18 0 0 -18 352.678 105.49)" width="100%" height="100%" style="fill:#fff"/><use xlink:href="#k" transform="matrix(18 0 0 -18 361.887 105.249)" width="100%" height="100%" style="fill:#fff"/><use xlink:href="#q" transform="matrix(18 0 0 -18 370.15 105.428)" width="100%" height="100%" style="fill:#fff"/><use xlink:href="#u" transform="matrix(18 0 0 -18 376.978 105.49)" width="100%" height="100%" style="fill:#fff"/><use xlink:href="#t" transform="matrix(18 0 0 -18 385.611 105.243)" width="100%" height="100%" style="fill:#fff"/><use xlink:href="#x" transform="matrix(18 0 0 -18 398.25 109.058)" width="100%" height="100%" style="fill:#fff"/><use xlink:href="#n" transform="matrix(18 0 0 -18 407.092 105.49)" width="100%" height="100%" style="fill:#fff"/><use xlink:href="#r" transform="matrix(18 0 0 -18 416.365 105.249)" width="100%" height="100%" style="fill:#fff"/><use xlink:href="#j" transform="matrix(18 0 0 -18 422.12 105.428)" width="100%" height="100%" style="fill:#fff"/><use xlink:href="#r" transform="matrix(18 0 0 -18 430.98 105.249)" width="100%" height="100%" style="fill:#fff"/><use xlink:href="#y" transform="matrix(18 0 0 -18 436.511 109.049)" width="100%" height="100%" style="fill:#fff"/><use xlink:href="#j" transform="matrix(18 0 0 -18 448.651 105.428)" width="100%" height="100%" style="fill:#fff"/><use xlink:href="#r" transform="matrix(18 0 0 -18 457.513 105.249)" width="100%" height="100%" style="fill:#fff"/><use xlink:href="#q" transform="matrix(18 0 0 -18 463.3 105.428)" width="100%" height="100%" style="fill:#fff"/><use xlink:href="#t" transform="matrix(18 0 0 -18 474.063 105.243)" width="100%" height="100%" style="fill:#fff"/><use xlink:href="#j" transform="matrix(18 0 0 -18 486.505 105.428)" width="100%" height="100%" style="fill:#fff"/><use xlink:href="#z" transform="matrix(18 0 0 -18 495.094 109.04)" width="100%" height="100%" style="fill:#fff"/><use xlink:href="#j" transform="matrix(18 0 0 -18 503.84 105.428)" width="100%" height="100%" style="fill:#fff"/><use xlink:href="#A" transform="matrix(18 0 0 -18 512.085 105.243)" width="100%" height="100%" style="fill:#fff"/><use xlink:href="#v" transform="matrix(18 0 0 -18 518.98 105.243)" width="100%" height="100%" style="fill:#fff"/><use xlink:href="#k" transform="matrix(18 0 0 -18 524.715 105.249)" width="100%" height="100%" style="fill:#fff"/><use xlink:href="#u" transform="matrix(18 0 0 -18 533.758 105.49)" width="100%" height="100%" style="fill:#fff"/></g></svg>