<?xml version="1.0" encoding="utf-8"?>
<!-- Generator: Adobe Illustrator 16.0.3, SVG Export Plug-In . SVG Version: 6.00 Build 0)  -->
<!DOCTYPE svg PUBLIC "-//W3C//DTD SVG 1.1//EN" "http://www.w3.org/Graphics/SVG/1.1/DTD/svg11.dtd">
<svg version="1.1" id="Vrstva_1" xmlns="http://www.w3.org/2000/svg" xmlns:xlink="http://www.w3.org/1999/xlink" x="0px" y="0px"
	 width="132px" height="40px" viewBox="0 0 132 40" enable-background="new 0 0 132 40" xml:space="preserve">
<g>
	<path fill="#FFFFFF" d="M38.269,34.191l-0.617-13.104V4.03c0-2.357-1.203-3.34-3.601-3.34c-3.668,0-7.354,1.138-10.965,2.605v1.144
		l5.481-0.008V31.17c-2.068,0.938-3.946,1.665-6.081,1.665c-5.413,0.012-7.759-2.656-7.759-9.498V3.84
		c0-2.356-1.133-3.286-3.479-3.274C7.581,0.554,3.764,1.765,0.15,3.296v1.136l5.493,0.008L5.636,25.883
		c0,9.042,3.877,12.705,10.692,12.719c4.487-0.014,8.685-2.071,12.239-5.344v0.473c0.257,3.317,2.14,4.591,6.292,4.591
		c2.735,0.008,6.399-1.595,8.688-3.544l-0.13-0.586H38.269z"/>
	<path fill="#FFFFFF" d="M108.748,33.612l-0.105-2.175v-1.489c0-1.346-0.954-1.692-1.882-1.692
		c-0.987,0.013-2.018,0.595-2.427,0.952l0.093,0.15c0.388-0.238,0.949-0.375,1.44-0.375c0.709,0,1.33,0.316,1.33,1.147v1.06
		l-0.971,0.113c-1.15,0.134-2.326,0.515-2.326,1.77c0,0.689,0.526,1.227,1.427,1.218c0.785,0.009,1.393-0.433,1.87-1.021v0.157
		c0.017,0.596,0.316,0.834,1.009,0.834c0.409,0,0.998-0.236,1.38-0.536l-0.018-0.112H108.748z M107.197,33.081
		c-0.39,0.254-0.736,0.373-1.063,0.373c-0.518,0-0.817-0.278-0.817-0.896c0-0.48,0.318-0.796,1.003-0.933
		c0.257-0.079,0.608-0.128,0.878-0.174V33.081z"/>
	<path fill="#FFFFFF" d="M84.069,33.389l-0.039-2.118v-0.998c0-1.47-0.624-2.033-1.709-2.033c-0.808,0-1.577,0.452-2.144,1.035
		c-0.253-0.733-0.817-1.035-1.584-1.035c-0.736,0.017-1.441,0.422-2.004,0.949l0.017-0.429c0-0.362-0.191-0.521-0.572-0.521
		c-0.573,0-1.188,0.213-1.753,0.439v0.184h0.875l-0.012,2.408l-0.032,2.118c-0.017,0.31-0.104,0.47-0.453,0.558l-0.332,0.076
		c0.021,0.056,0.014,0.113,0.033,0.169h3.07c0.021-0.042,0.042-0.113,0.042-0.169l-0.463-0.104c-0.289-0.07-0.373-0.237-0.373-0.529
		l-0.047-2.088l0.017-1.876c0.341-0.158,0.695-0.236,1.02-0.236c0.843,0,1.222,0.398,1.238,1.439l0.008,0.673l-0.049,2.088
		c-0.02,0.311-0.114,0.47-0.458,0.558l-0.316,0.078c0,0.054,0,0.111,0.024,0.167h3.081c0.027-0.042,0.033-0.13,0.033-0.169
		l-0.464-0.104c-0.283-0.07-0.377-0.237-0.377-0.529l-0.037-2.088v-1.026c0-0.314-0.025-0.579-0.082-0.817
		c0.379-0.157,0.741-0.269,1.106-0.249c0.849-0.02,1.241,0.379,1.251,1.42v0.673l-0.046,2.088c-0.011,0.311-0.104,0.47-0.446,0.558
		l-0.317,0.076c0,0.056,0,0.098,0.017,0.169l3.097,0.013c0.012-0.055,0.02-0.143,0.02-0.18l-0.461-0.106
		C84.159,33.848,84.069,33.681,84.069,33.389z"/>
	<path fill="#FFFFFF" d="M72.67,33.612l-0.093-2.096v-2.714c0-0.376-0.197-0.534-0.59-0.534c-0.581,0-1.16,0.184-1.75,0.41
		l0.011,0.184h0.878v4.268c-0.343,0.14-0.632,0.259-0.981,0.259c-0.851,0-1.237-0.411-1.237-1.502V28.76
		c0-0.353-0.169-0.521-0.542-0.504c-0.593-0.017-1.192,0.196-1.773,0.416v0.19h0.864v3.42c0.022,1.448,0.619,2.025,1.712,2.025
		c0.71,0,1.396-0.324,1.958-0.854v0.097c0.038,0.511,0.33,0.71,0.993,0.724c0.436-0.014,1.038-0.252,1.4-0.575l-0.026-0.087H72.67z"
		/>
	<path fill="#FFFFFF" d="M98.325,33.389l-0.033-2.118v-0.996c0-1.472-0.66-2.019-1.739-2.019c-0.79-0.017-1.575,0.416-2.114,0.933
		L94.42,28.76c0.019-0.353-0.176-0.521-0.553-0.504c-0.605-0.017-1.199,0.196-1.769,0.423v0.184h0.878v2.408l-0.05,2.118
		c-0.008,0.31-0.101,0.47-0.452,0.558l-0.309,0.078c0,0.054,0,0.111,0.011,0.167l3.092,0.013c0.024-0.055,0.036-0.143,0.036-0.182
		l-0.475-0.104c-0.275-0.07-0.365-0.237-0.365-0.529l-0.045-2.118v-1.813c0.41-0.19,0.803-0.269,1.142-0.269
		c0.839,0,1.274,0.398,1.286,1.439v0.643l-0.049,2.118c-0.012,0.311-0.104,0.47-0.45,0.558l-0.316,0.076
		c0,0.056,0,0.098,0.021,0.182l3.084-0.013c0.016-0.042,0.032-0.13,0.032-0.167l-0.463-0.106
		C98.421,33.848,98.325,33.681,98.325,33.389z"/>
	<path fill="#FFFFFF" d="M91.133,31.127l-0.003-0.255c0.003-1.469-0.72-2.633-2.423-2.633c-1.734,0-2.909,1.518-2.909,3.238
		c-0.018,1.849,0.837,2.83,2.721,2.83c1.052,0,1.922-0.416,2.357-1.002l-0.067-0.082c-0.592,0.22-1.176,0.281-1.606,0.285
		c-1.152-0.004-1.943-0.674-2.03-2.345v-0.037H91.133z M87.163,30.767c0.014-1.601,0.624-2.176,1.439-2.176
		c0.862,0.012,1.184,0.787,1.184,2.176H87.163z"/>
	<path fill="#FFFFFF" d="M102.272,33.389l-0.03-2.118l-0.008-2.491c0-0.372-0.174-0.54-0.556-0.54c-0.578,0-1.188,0.213-1.77,0.433
		l0.014,0.19h0.867v2.408l-0.046,2.118c0,0.31-0.104,0.47-0.448,0.558l-0.319,0.078c0,0.054,0,0.111,0.028,0.167h3.076
		c0.021-0.056,0.034-0.13,0.034-0.167l-0.46-0.106C102.368,33.848,102.272,33.681,102.272,33.389z"/>
	<path fill="#FFFFFF" d="M102.295,26.38c0-0.184-0.66-0.821-0.823-0.799c-0.158-0.009-0.823,0.615-0.813,0.799
		c0,0.175,0.654,0.817,0.813,0.836C101.668,27.197,102.295,26.507,102.295,26.38z"/>
	<path fill="#FFFFFF" d="M72.975,20.755l-0.044-2.119v-1.005c0-1.456-0.654-2.024-1.756-2.024c-0.769,0-1.534,0.405-2.115,0.933
		v-0.411c0-0.381-0.164-0.521-0.54-0.521c-0.601,0-1.205,0.187-1.766,0.432l-0.009,0.184h0.875v2.431l-0.055,2.103
		c0,0.316-0.109,0.459-0.436,0.539l-0.335,0.088c0,0.063,0,0.117,0.034,0.167h3.087c0.016-0.05,0.019-0.114,0.019-0.167l-0.46-0.098
		c-0.276-0.085-0.374-0.254-0.393-0.529l-0.022-2.103v-1.845c0.415-0.206,0.796-0.246,1.129-0.269c0.851,0,1.275,0.418,1.284,1.439
		v0.674l-0.03,2.103c-0.016,0.3-0.106,0.467-0.446,0.539l-0.325,0.088c0,0.063,0.008,0.117,0.027,0.174h3.084
		c0.01-0.057,0.03-0.121,0.023-0.174l-0.452-0.098C73.063,21.199,72.975,21.03,72.975,20.755z"/>
	<path fill="#FFFFFF" d="M109.229,15.606c-0.707,0-1.24,0.369-1.669,0.75v-0.229c0-0.363-0.188-0.521-0.559-0.521
		c-0.578,0-1.194,0.187-1.77,0.416v0.199l0.864,0.016v2.293l-0.076,4.586c-0.017,0.3-0.104,0.441-0.442,0.535l-0.321,0.082
		c0,0.05,0,0.1,0.021,0.174l3.135-0.017c0.028-0.058,0.045-0.124,0.045-0.157l-0.455-0.104c-0.293-0.082-0.385-0.232-0.385-0.532
		l-0.039-1.505c0.235,0.019,0.453,0.049,0.8,0.049c1.715-0.013,3.111-1.014,3.127-3.195
		C111.505,16.499,110.715,15.606,109.229,15.606z M108.457,21.231c-0.401,0.014-0.644-0.052-0.879-0.144l-0.019-2.717v-1.77
		c0.254-0.08,0.625-0.245,0.984-0.229c0.946,0,1.442,0.542,1.442,2.263C109.986,20.215,109.498,21.245,108.457,21.231z"/>
	<path fill="#FFFFFF" d="M83.805,16.216l0.88,0.006v2.328l-0.09,4.547c-0.01,0.3-0.12,0.475-0.447,0.555l-0.318,0.069
		c0,0.063,0.008,0.112,0.019,0.187h3.141c0.027-0.074,0.027-0.141,0.027-0.187l-0.441-0.092c-0.283-0.082-0.387-0.256-0.403-0.532
		l-0.022-1.513c0.252,0.026,0.464,0.065,0.788,0.057c1.721,0,3.139-1.019,3.139-3.208c0-1.934-0.774-2.815-2.279-2.815
		c-0.692-0.011-1.222,0.337-1.655,0.739l-0.013-0.229c0-0.381-0.184-0.521-0.543-0.521c-0.593,0-1.208,0.187-1.78,0.448V16.216z
		 M86.128,16.602c0.25-0.08,0.626-0.229,1.011-0.229c0.913,0,1.42,0.542,1.431,2.279c0,1.563-0.49,2.593-1.537,2.593
		c-0.408,0-0.632-0.065-0.884-0.157l-0.021-2.705V16.602z"/>
	<path fill="#FFFFFF" d="M75.064,16.695c0.396-0.21,0.967-0.362,1.457-0.362c0.693,0,1.328,0.314,1.336,1.161l-0.008,1.071
		l-0.97,0.096c-1.14,0.141-2.32,0.526-2.313,1.747c-0.008,0.696,0.512,1.241,1.401,1.241c0.796,0,1.4-0.418,1.889-1.027v0.174
		c0.014,0.586,0.316,0.832,0.99,0.832c0.42,0,1.017-0.246,1.391-0.573l-0.011-0.087l-0.835-0.014l-0.092-2.17v-1.477
		c0-1.354-0.952-1.701-1.882-1.69c-0.992-0.011-2.02,0.599-2.448,0.947L75.064,16.695z M77.85,20.432
		c-0.398,0.258-0.747,0.386-1.045,0.386c-0.517,0-0.836-0.292-0.836-0.895c0-0.496,0.319-0.795,0.986-0.957
		c0.284-0.068,0.627-0.111,0.902-0.148L77.85,20.432z"/>
	<path fill="#FFFFFF" d="M97.052,18.565c0-2.004-1.02-2.959-2.838-2.959c-1.66,0-2.923,1.587-2.923,3.152
		c0.005,1.996,0.99,2.914,2.83,2.914C95.834,21.673,97.06,20.03,97.052,18.565z M92.826,18.53c0-1.531,0.278-2.59,1.268-2.596
		c1.199,0,1.412,1.537,1.435,2.805c-0.022,1.574-0.328,2.585-1.284,2.585C93.132,21.324,92.826,20.109,92.826,18.53z"/>
	<path fill="#FFFFFF" d="M104.525,20.968h-0.818l-0.104-2.286v-4.825c0-0.365-0.196-0.52-0.559-0.52
		c-0.587,0-1.191,0.209-1.77,0.438v0.19h0.866v1.733c-0.229-0.04-0.534-0.069-0.904-0.057c-1.658-0.013-2.991,1.227-3.005,3.177
		c0.014,2.369,1.217,2.821,2.317,2.809c0.622,0.013,1.194-0.317,1.62-0.674c0.06,0.49,0.357,0.687,0.992,0.674
		c0.441,0,1.015-0.246,1.391-0.557L104.525,20.968z M101.237,20.913c-0.829,0-1.56-0.698-1.56-2.468
		c0-1.628,0.499-2.491,1.614-2.491c0.33,0,0.605,0.101,0.85,0.205l0.006,4.574C101.883,20.829,101.566,20.913,101.237,20.913z"/>
	<path fill="#FFFFFF" d="M131.833,20.968h-0.834l-0.09-2.088l0.014-2.721c-0.014-0.375-0.202-0.529-0.578-0.529
		c-0.608,0-1.187,0.183-1.762,0.408v0.184h0.878v4.255c-0.336,0.169-0.618,0.278-0.971,0.278c-0.851,0-1.228-0.426-1.228-1.511
		v-3.116c0-0.381-0.195-0.521-0.566-0.521c-0.58,0-1.188,0.187-1.767,0.432v0.184h0.878v3.427c0,1.439,0.611,2.022,1.701,2.024
		c0.712-0.002,1.386-0.346,1.952-0.855v0.096c0.049,0.521,0.35,0.715,1.01,0.715c0.425,0,1.008-0.246,1.379-0.573L131.833,20.968z"
		/>
	<path fill="#FFFFFF" d="M121.818,16.745l-0.01-0.617c0-0.381-0.173-0.521-0.549-0.521c-0.578,0-1.181,0.187-1.758,0.448
		l-0.015,0.167h0.881v2.414l-0.035,2.119c-0.017,0.3-0.108,0.467-0.458,0.539l-0.316,0.088c0,0.063,0,0.117,0.032,0.174l3.067-0.007
		c0.027-0.05,0.036-0.114,0.036-0.167l-0.453-0.098c-0.286-0.085-0.387-0.254-0.387-0.529l-0.036-2.103l-0.01-1.688
		c0.308-0.182,0.7-0.338,1.143-0.338c0.37,0,0.702,0.068,1.03,0.242l0.356-1.122c-0.209-0.088-0.403-0.141-0.685-0.141
		C122.819,15.606,122.163,16.136,121.818,16.745z"/>
	<path fill="#FFFFFF" d="M115.641,15.606c-1.647,0-2.925,1.587-2.925,3.152c0,1.996,0.983,2.914,2.824,2.914
		c1.724,0,2.944-1.643,2.944-3.107C118.484,16.562,117.46,15.606,115.641,15.606z M115.659,21.324c-1.111,0-1.4-1.215-1.4-2.794
		c0-1.52,0.289-2.596,1.271-2.596c1.178,0,1.409,1.537,1.409,2.805C116.938,20.313,116.619,21.324,115.659,21.324z"/>
	<path fill="#FFFFFF" d="M79.076,6.093l-0.052,2.094c0,0.305-0.099,0.455-0.443,0.562l-0.323,0.07
		c0.015,0.052,0.015,0.104,0.022,0.173h3.087c0.021-0.059,0.032-0.143,0.032-0.173l-0.469-0.106
		c-0.281-0.07-0.382-0.251-0.382-0.535l-0.035-2.084V4.258c0.431-0.212,0.793-0.281,1.134-0.281
		c0.854,0.014,1.279,0.395,1.279,1.437l0.022,0.68L82.91,8.187c-0.024,0.305-0.114,0.455-0.447,0.562l-0.327,0.079
		c0,0.043,0,0.095,0.022,0.15h3.083c0.014-0.045,0.029-0.121,0.029-0.15l-0.452-0.115c-0.3-0.07-0.387-0.251-0.387-0.525
		l-0.03-2.109V5.056c0-1.443-0.682-2.023-1.758-2.014c-0.775,0-1.555,0.416-2.111,0.935V3.565c0-0.383-0.186-0.523-0.556-0.523
		c-0.595,0-1.197,0.188-1.778,0.441v0.157h0.878V6.093z"/>
	<path fill="#FFFFFF" d="M88.482,9.056c0.633,0,1.202-0.303,1.636-0.676c0.049,0.49,0.349,0.676,0.985,0.676
		c0.443,0,1.021-0.257,1.387-0.564l-0.016-0.096H91.64l-0.087-2.276l-0.006-4.812c0-0.385-0.191-0.525-0.562-0.538
		c-0.575,0-1.199,0.199-1.771,0.454v0.174h0.883v1.729c-0.239-0.027-0.526-0.052-0.904-0.052c-1.669-0.009-3.005,1.227-3.005,3.187
		C86.188,8.612,87.393,9.056,88.482,9.056z M89.227,3.403c0.35,0,0.616,0.066,0.87,0.178l-0.006,4.596
		c-0.256,0.081-0.584,0.167-0.91,0.167c-0.829,0-1.56-0.706-1.56-2.479C87.621,4.258,88.117,3.403,89.227,3.403z"/>
	<path fill="#FFFFFF" d="M77.195,5.993c0-2.003-1.02-2.951-2.835-2.961c-1.663,0.01-2.945,1.599-2.945,3.149
		c-0.009,2.005,0.995,2.927,2.847,2.927C75.969,9.108,77.195,7.487,77.195,5.993z M74.371,8.769c-1.11,0-1.41-1.216-1.41-2.793
		c0-1.544,0.273-2.609,1.276-2.609c1.188,0,1.398,1.547,1.407,2.815C75.645,7.758,75.319,8.753,74.371,8.769z"/>
	<path fill="#FFFFFF" d="M67.62,6.093l-0.033,2.084c-0.021,0.314-0.108,0.465-0.453,0.561l-0.323,0.081
		c0,0.052-0.009,0.104,0.029,0.173h3.092c0.003-0.059,0.017-0.135,0.017-0.173l-0.45-0.106c-0.285-0.075-0.397-0.251-0.397-0.525
		l-0.019-2.109V3.958l1.272-0.01V3.507l-1.272,0.01v-0.68c0-0.933,0.116-1.729,1.038-1.729c0.491,0,0.826,0.605,1.173,1.158
		c0.338-0.144,0.599-0.316,0.599-0.684c0-0.529-0.809-0.813-1.818-0.813c-1.166,0-2.453,0.972-2.453,2.147v0.6L66.77,3.612v0.346
		h0.851V6.093z"/>
	<path fill="#FFFFFF" d="M51.992,29.539c-1.144,0-4.89,3.62-4.89,4.886c0,1.213,3.746,5.01,4.876,5.01
		c1.156,0,4.968-3.854,4.968-5.01C56.946,33.224,53.135,29.539,51.992,29.539z"/>
</g>
</svg>
