<?xml version="1.0" encoding="utf-8"?>
<!-- Generator: Adobe Illustrator 16.0.3, SVG Export Plug-In . SVG Version: 6.00 Build 0)  -->
<!DOCTYPE svg PUBLIC "-//W3C//DTD SVG 1.1//EN" "http://www.w3.org/Graphics/SVG/1.1/DTD/svg11.dtd">
<svg version="1.1" id="Vrstva_1" xmlns="http://www.w3.org/2000/svg" xmlns:xlink="http://www.w3.org/1999/xlink" x="0px" y="0px"
	 width="192px" height="60px" viewBox="0 0 192 60" enable-background="new 0 0 192 60" xml:space="preserve">
<g>
	<g>
		<g>
			<g>
				<path fill="#FFFFFF" d="M115.594,39.738c-5.154,0-8.363,3.891-8.363,8.398c0,4.539,3.209,8.43,8.363,8.43
					c5.125,0,8.319-3.891,8.319-8.43C123.913,43.629,120.719,39.738,115.594,39.738z M115.594,54.737
					c-4.088,0-6.228-3.071-6.228-6.601c0-3.492,2.14-6.566,6.228-6.566c4.044,0,6.18,3.074,6.18,6.566
					C121.773,51.666,119.638,54.737,115.594,54.737z"/>
				<path fill="#FFFFFF" d="M102.755,45.061c0.81-0.449,1.265-1.168,1.171-2.148l-0.321-2.847h-2.143l0.355,3.277l-8.321,4.728
					V32.234h-2.142v23.999h2.142v-5.881l3.332-1.888l5.639,7.769h2.417l-6.341-8.751L102.755,45.061z"/>
				<path fill="#FFFFFF" d="M158.205,45.061c0.814-0.449,1.278-1.168,1.184-2.148l-0.328-2.847h-2.135l0.363,3.277l-8.33,4.728
					V32.234h-2.142v23.999h2.142v-5.881l3.345-1.888l5.628,7.769h2.432l-6.352-8.751L158.205,45.061z"/>
				<path fill="#FFFFFF" d="M177.183,47.029c0-4.117-2.44-7.291-6.948-7.291c-4.564,0-6.889,3.107-6.889,6.312h2.143
					c0-3.372,2.355-4.479,4.746-4.479c2.895,0,4.615,1.603,4.807,4.903l-6.676,0.623c-3.535,0.321-5.02,2.114-5.02,4.63
					c0,1.703,0.645,4.84,5.237,4.84c3.77,0,5.517-2.324,6.136-4.742h0.65l-0.328,1.633v0.979c0,1.142,0.646,1.797,1.781,1.797h2.722
					v-1.83h-2.361V47.029z M168.787,54.737c-2.073,0-3.299-1.147-3.299-3.205c0-1.731,1.063-2.415,3.201-2.608l6.352-0.625
					C175.041,51.922,172.613,54.737,168.787,54.737z"/>
				<path fill="#FFFFFF" d="M135.28,41.57c2.409,0,4.576,1.08,5.095,4.507h2.16c-0.442-4.7-4.406-6.339-7.255-6.339
					c-5.213,0-8.068,3.891-8.068,8.398c0,4.539,2.855,8.43,8.068,8.43c2.849,0,6.813-1.641,7.255-6.342h-2.16
					c-0.519,3.432-2.686,4.513-5.095,4.513c-4.065,0-5.923-3.071-5.923-6.601C129.357,44.645,131.215,41.57,135.28,41.57z"/>
				<path fill="#FFFFFF" d="M188.123,35.744c-1.913,0-3.314,0.949-4.039,1.924l-0.313-0.188l0.182-0.952v-3.523h7.492v-1.068h-8.733
					v5.927l1.696,0.832c0.633-0.969,1.696-1.882,3.521-1.882c2.163,0,3.186,1.365,3.186,3.562c0,2.625-1.575,4.109-4.075,4.109
					c-2.74,0-4.148-1.369-4.148-3.866h-1.259c0,3.085,1.983,4.931,5.407,4.931c3.186,0,5.32-1.941,5.32-5.068
					C192.359,37.598,190.787,35.744,188.123,35.744z"/>
				<path fill="#FFFFFF" d="M154.752,22.333c0,1.705,0.658,4.84,5.253,4.84c3.754,0,5.513-2.325,6.133-4.737h0.643l-0.33,1.632
					v0.975c0,1.144,0.649,1.796,1.785,1.796h2.724v-1.827h-2.376v-7.382c0-4.112-2.427-7.283-6.927-7.283
					c-4.564,0-6.904,3.104-6.904,6.312h2.154c0-3.368,2.37-4.476,4.75-4.476c2.895,0,4.6,1.6,4.794,4.898l-6.667,0.618
					C156.24,18.024,154.752,19.823,154.752,22.333z M166.45,18.91c0,3.623-2.421,6.432-6.251,6.432
					c-2.078,0-3.293-1.144-3.293-3.197c0-1.736,1.075-2.416,3.208-2.616L166.45,18.91z"/>
				<path fill="#FFFFFF" d="M151.781,25.011h-4.509V4.635c0-1.475-0.64-2.291-2.103-2.124l-3.24,0.328v1.826l3.201-0.324v20.669
					h-4.485v1.827h11.136V25.011z"/>
				<path fill="#FFFFFF" d="M138.949,21.191h-2.14c-0.649,2.709-2.506,4.15-5.356,4.15c-4.185,0-5.625-2.906-5.822-6.208h12.768
					v-0.911c0-5-2.852-7.877-7.297-7.877c-4.424,0-7.609,2.977-7.609,8.202c0,4.67,2.336,8.625,7.961,8.625
					C136.484,27.173,138.301,23.741,138.949,21.191z M131.102,12.182c3.302,0,5.156,2.248,5.156,5.125h-10.627
					C125.631,14.43,127.917,12.182,131.102,12.182z"/>
				<path fill="#FFFFFF" d="M100.363,10.346c-3.611,0-5.899,1.997-6.546,4.612h-0.648l0.327-1.635V2.839h-2.142v23.999h2.142v-2.64
					l-0.327-1.633h0.648c0.646,2.61,2.935,4.607,6.546,4.607c4.661,0,7.774-3.563,7.774-8.43
					C108.138,13.909,105.024,10.346,100.363,10.346z M99.904,25.342c-3.419,0-6.408-1.962-6.408-6.599
					c0-4.606,2.989-6.561,6.408-6.561c3.439,0,6.097,1.955,6.097,6.561C106.001,23.379,103.344,25.342,99.904,25.342z"/>
				<path fill="#FFFFFF" d="M121.489,25.011h-4.503V12.142c0-1.144-0.523-1.923-1.981-1.796l-3.234,0.328v1.827l3.194-0.319v12.83
					h-4.496v1.827h11.021V25.011z"/>
				<path fill="#FFFFFF" d="M115.548,7.898c1.216,0,2.218-1.014,2.218-2.215c0-1.181-1.002-2.191-2.218-2.191
					c-1.193,0-2.164,1.011-2.164,2.191C113.384,6.884,114.354,7.898,115.548,7.898z"/>
			</g>
			<g>
				<polygon fill="#FFFFFF" points="19.037,13.129 9.642,29.533 19.037,45.925 28.429,29.533 				"/>
				<polygon fill="#FFFFFF" points="20.409,46.724 39.608,46.724 49.012,30.328 29.806,30.328 				"/>
				<polygon fill="#FFFFFF" points="20.409,12.337 29.806,28.735 49.012,28.735 39.608,12.337 				"/>
				<path fill="#FFFFFF" d="M29.558,0.272c-16.037,0-29.015,13.105-29.015,29.26c0,16.15,12.978,29.25,29.015,29.25
					c16.025,0,29.021-13.1,29.021-29.25C58.579,13.378,45.583,0.272,29.558,0.272z M40.749,47.928
					c-0.139,0.236-0.404,0.392-0.676,0.392H19.037c-0.288,0-0.549-0.149-0.686-0.392L8.046,29.925c-0.146-0.246-0.146-0.546,0-0.792
					l10.305-17.998c0.136-0.245,0.397-0.394,0.686-0.394h21.047c0.264,0,0.525,0.148,0.673,0.394L51.06,29.132
					c0.082,0.127,0.118,0.258,0.118,0.4c0,0.14-0.036,0.273-0.118,0.397L40.749,47.928z"/>
			</g>
		</g>
	</g>
</g>
</svg>
