<?xml version="1.0" encoding="utf-8"?>
<!-- Generator: Adobe Illustrator 16.0.3, SVG Export Plug-In . SVG Version: 6.00 Build 0)  -->
<!DOCTYPE svg PUBLIC "-//W3C//DTD SVG 1.1//EN" "http://www.w3.org/Graphics/SVG/1.1/DTD/svg11.dtd">
<svg version="1.1" id="Vrstva_1" xmlns="http://www.w3.org/2000/svg" xmlns:xlink="http://www.w3.org/1999/xlink" x="0px" y="0px"
	 width="70px" height="40px" viewBox="0 0 70 40" enable-background="new 0 0 70 40" xml:space="preserve">
<g>
	<g>
		<path fill="#FFFFFF" d="M9.709,23.186c2.332,0,3.589-1.336,3.589-3.195c0-1.97-1.257-3.197-3.589-3.197H6.374v6.392H9.709z
			 M8.383,28.24H6.374v9.811H0.705V11.704h10.08c5.023,0,8.252,3.566,8.252,8.25c0,3.568-1.9,6.281-5.023,7.433l5.167,10.664h-6.242
			L8.383,28.24z"/>
		<path fill="#FFFFFF" d="M41.96,28.297l-0.358-2.678c-1.112,1.674-3.517,3.234-7.14,3.234c-7.067,0-12.88-5.387-12.88-13.712
			c0-8.287,6.063-13.75,13.238-13.75c7.283,0,10.655,4.458,11.768,8.139l-5.452,1.968C40.74,9.863,39.054,6.89,34.82,6.89
			c-3.444,0-7.498,2.378-7.498,8.251c0,5.5,3.517,8.361,7.642,8.361c4.197,0,5.956-2.824,6.277-4.309h-7.641v-4.98h12.951v14.084
			H41.96z"/>
		<path fill="#FFFFFF" d="M63.734,19.656c-0.179-1.226-1.148-3.308-4.233-3.308c-2.116,0-3.481,1.376-3.481,2.825
			c0,1.264,0.754,2.192,2.513,2.526l3.409,0.67c4.842,0.93,7.354,4.162,7.354,7.916c0,4.125-3.336,8.324-9.399,8.324
			c-7.032,0-10.046-4.719-10.403-8.436l5.201-1.301c0.216,2.416,1.793,4.533,5.273,4.533c2.224,0,3.589-1.115,3.589-2.75
			c0-1.338-1.042-2.305-2.729-2.639l-3.479-0.668c-4.305-0.855-6.924-3.828-6.924-7.731c0-4.979,4.232-8.474,9.113-8.474
			c6.35,0,8.754,3.94,9.291,7.024L63.734,19.656z"/>
	</g>
	<rect x="22.753" y="32.479" fill="#FFFFFF" width="23.835" height="5.572"/>
</g>
</svg>
