<svg width="192" height="60" xml:space="preserve" xmlns="http://www.w3.org/2000/svg"><g fill="#fff"><path d="M115.594 39.738c-5.154 0-8.363 3.891-8.363 8.398 0 4.539 3.209 8.43 8.363 8.43 5.125 0 8.319-3.891 8.319-8.43 0-4.507-3.194-8.398-8.319-8.398zm0 14.999c-4.088 0-6.228-3.071-6.228-6.601 0-3.492 2.14-6.566 6.228-6.566 4.044 0 6.18 3.074 6.18 6.566-.001 3.53-2.136 6.601-6.18 6.601zM102.755 45.061c.81-.449 1.265-1.168 1.171-2.148l-.321-2.847h-2.143l.355 3.277-8.321 4.728V32.234h-2.142v23.999h2.142v-5.881l3.332-1.888 5.639 7.769h2.417l-6.341-8.751zM158.205 45.061c.814-.449 1.278-1.168 1.184-2.148l-.328-2.847h-2.135l.363 3.277-8.33 4.728V32.234h-2.142v23.999h2.142v-5.881l3.345-1.888 5.628 7.769h2.432l-6.352-8.751zM177.183 47.029c0-4.117-2.44-7.291-6.948-7.291-4.564 0-6.889 3.107-6.889 6.312h2.143c0-3.372 2.355-4.479 4.746-4.479 2.895 0 4.615 1.603 4.807 4.903l-6.676.623c-3.535.321-5.02 2.114-5.02 4.63 0 1.703.645 4.84 5.237 4.84 3.77 0 5.517-2.324 6.136-4.742h.65l-.328 1.633v.979c0 1.142.646 1.797 1.781 1.797h2.722v-1.83h-2.361zm-8.396 7.708c-2.073 0-3.299-1.147-3.299-3.205 0-1.731 1.063-2.415 3.201-2.608l6.352-.625c0 3.623-2.428 6.438-6.254 6.438zM135.28 41.57c2.409 0 4.576 1.08 5.095 4.507h2.16c-.442-4.7-4.406-6.339-7.255-6.339-5.213 0-8.068 3.891-8.068 8.398 0 4.539 2.855 8.43 8.068 8.43 2.849 0 6.813-1.641 7.255-6.342h-2.16c-.519 3.432-2.686 4.513-5.095 4.513-4.065 0-5.923-3.071-5.923-6.601 0-3.491 1.858-6.566 5.923-6.566zM154.752 22.333c0 1.705.658 4.84 5.253 4.84 3.754 0 5.513-2.325 6.133-4.737h.643l-.33 1.632v.975c0 1.144.649 1.796 1.785 1.796h2.724v-1.827h-2.376V17.63c0-4.112-2.427-7.283-6.927-7.283-4.564 0-6.904 3.104-6.904 6.312h2.154c0-3.368 2.37-4.476 4.75-4.476 2.895 0 4.6 1.6 4.794 4.898l-6.667.618c-3.544.325-5.032 2.124-5.032 4.634zm11.698-3.423c0 3.623-2.421 6.432-6.251 6.432-2.078 0-3.293-1.144-3.293-3.197 0-1.736 1.075-2.416 3.208-2.616zM151.781 25.011h-4.509V4.635c0-1.475-.64-2.291-2.103-2.124l-3.24.328v1.826l3.201-.324V25.01h-4.485v1.827h11.136zM138.949 21.191h-2.14c-.649 2.709-2.506 4.15-5.356 4.15-4.185 0-5.625-2.906-5.822-6.208h12.768v-.911c0-5-2.852-7.877-7.297-7.877-4.424 0-7.609 2.977-7.609 8.202 0 4.67 2.336 8.625 7.961 8.625 5.03.001 6.847-3.431 7.495-5.981zm-7.847-9.009c3.302 0 5.156 2.248 5.156 5.125h-10.627c0-2.877 2.286-5.125 5.471-5.125zM100.363 10.346c-3.611 0-5.899 1.997-6.546 4.612h-.648l.327-1.635V2.839h-2.142v23.999h2.142v-2.64l-.327-1.633h.648c.646 2.61 2.935 4.607 6.546 4.607 4.661 0 7.774-3.563 7.774-8.43.001-4.833-3.113-8.396-7.774-8.396zm-.459 14.996c-3.419 0-6.408-1.962-6.408-6.599 0-4.606 2.989-6.561 6.408-6.561 3.439 0 6.097 1.955 6.097 6.561 0 4.636-2.657 6.599-6.097 6.599zM121.489 25.011h-4.503V12.142c0-1.144-.523-1.923-1.981-1.796l-3.234.328v1.827l3.194-.319v12.83h-4.496v1.827h11.021v-1.828zM115.548 7.898a2.237 2.237 0 0 0 2.218-2.215c0-1.181-1.002-2.191-2.218-2.191-1.193 0-2.164 1.011-2.164 2.191 0 1.201.97 2.215 2.164 2.215zM19.037 13.129 9.642 29.533l9.395 16.392 9.392-16.392zM20.409 46.724h19.199l9.404-16.396H29.806zM20.409 12.337l9.397 16.398h19.206l-9.404-16.398z"/><path d="M29.558.272C13.521.272.543 13.377.543 29.532c0 16.15 12.978 29.25 29.015 29.25 16.025 0 29.021-13.1 29.021-29.25 0-16.154-12.996-29.26-29.021-29.26zm11.191 47.656a.802.802 0 0 1-.676.392H19.037a.781.781 0 0 1-.686-.392L8.046 29.925a.77.77 0 0 1 0-.792l10.305-17.998a.777.777 0 0 1 .686-.394h21.047c.264 0 .525.148.673.394L51.06 29.132a.715.715 0 0 1 .118.4c0 .14-.036.273-.118.397zM181.37 39.04c0 4.27 2.145 6.396 5.325 6.396 3.292 0 5.305-2.07 5.305-4.948 0-2.784-1.768-4.779-4.741-4.779-2.37 0-4.27 1.317-4.647 3.236h-.433l.433-1.072c.358-2.634 1.411-5.08 4.59-4.76l3.839.376v-1.316l-3.838-.377c-4.271-.432-5.833 2.935-5.833 7.243zm1.543 1.636c0-2.257 1.787-3.65 4.14-3.65 2.2 0 3.404 1.374 3.404 3.462 0 2.314-1.373 3.63-3.762 3.63-2.408 0-3.782-1.749-3.782-3.442z"/></g></svg>